Coordinates
version=1
nRows=14
nColumns=46
inDegrees=yes

Units are S.I. units (second, meters, Newtons, ...)
Angles are in degrees.

endheader
time	pelvis_tilt	pelvis_list	pelvis_rotation	pelvis_tx	pelvis_ty	pelvis_tz	bb_angle	bb_tx	bb_ty	bb_tz	hip_flexion_r	hip_adduction_r	hip_rotation_r	knee_angle_r	knee_angle_r_beta	ankle_angle_r	subtalar_angle_r	mtp_angle_r	crank_angle_r	hip_flexion_l	hip_adduction_l	hip_rotation_l	knee_angle_l	knee_angle_l_beta	ankle_angle_l	subtalar_angle_l	mtp_angle_l	crank_angle_l	lumbar_extension	lumbar_bending	lumbar_rotation	arm_flex_r	arm_add_r	arm_rot_r	elbow_flex_r	pro_sup_r	wrist_flex_r	wrist_dev_r	arm_flex_l	arm_add_l	arm_rot_l	elbow_flex_l	pro_sup_l	wrist_flex_l	wrist_dev_l
      0.00000000	    -20.31172060	     -2.99498667	      1.55788267	      0.13150614	      1.13388663	     -0.25286467	      0.00000000	      0.50000000	      0.00000000	      0.25000000	     75.02669501	     -6.35128375	     -4.69325867	    101.13404619	      1.76512209	      5.66367245	     -8.40912563	      0.00000000	      0.00000000	     69.26172270	     -6.10566313	      1.59739531	     58.59145739	      1.02261385	      2.13551538	     -3.72658633	      0.00000000	      0.00000000	    -49.42844705	      1.38599396	      3.68447093	     89.80517193	      0.79661159	     24.44074795	     30.93940105	     19.78862825	      0.00000000	      0.00000000	     89.75355613	      4.84817462	     26.90516454	     30.46045238	     19.59973459	      0.00000000	      0.00000000
      0.00500000	    -20.29763122	     -2.99531546	      1.54438321	      0.13156106	      1.13395153	     -0.25286759	      0.00000000	      0.50000000	      0.00000000	      0.25000000	     75.01655719	     -6.34280677	     -4.68780096	    101.13878478	      1.76520480	      5.64780672	     -8.37332425	      0.00000000	      0.00000000	     69.22515229	     -6.11611540	      1.59145717	     58.57352674	      1.02230090	      2.14611262	     -3.75527120	      0.00000000	      0.00000000	    -49.47418067	      1.38673837	      3.71419324	     89.80343649	      1.06384369	     23.13995459	     30.54747770	     22.28874701	      0.00000000	      0.00000000	     89.75313483	      5.09837590	     25.85145411	     30.03314670	     22.17682995	      0.00000000	      0.00000000
      0.01000000	    -20.31003257	     -3.01948625	      1.55289449	      0.13157786	      1.13390465	     -0.25290184	      0.00000000	      0.50000000	      0.00000000	      0.25000000	     75.03772450	     -6.34716921	     -4.71020180	    101.15179167	      1.76543181	      5.64312005	     -8.35517813	      0.00000000	      0.00000000	     69.23498146	     -6.11528671	      1.62372586	     58.56802959	      1.02220495	      2.14305434	     -3.72743086	      0.00000000	      0.00000000	    -49.46562284	      1.41783595	      3.71922504	     89.80373927	      1.21534489	     22.48609181	     30.31330991	     23.62901833	      0.00000000	      0.00000000	     89.75139083	      5.16697774	     25.36722598	     29.79868557	     23.56678189	      0.00000000	      0.00000000
      0.01500000	    -20.30986028	     -2.98176445	      1.50739360	      0.13160359	      1.13389811	     -0.25280691	      0.00000000	      0.50000000	      0.00000000	      0.25000000	     75.06528287	     -6.31700144	     -4.65792235	    101.16607340	      1.76568107	      5.62822091	     -8.36762884	      0.00000000	      0.00000000	     69.21167120	     -6.14866482	      1.55470422	     58.55702101	      1.02201282	      2.16013701	     -3.74122128	      0.00000000	      0.00000000	    -49.46753241	      1.34698529	      3.71058282	     89.80275388	      1.33323352	     22.06904964	     30.12759331	     24.55029357	      0.00000000	      0.00000000	     89.75302532	      5.24990620	     25.06498877	     29.59634136	     24.51525083	      0.00000000	      0.00000000
      0.02000000	    -20.33741617	     -3.03533000	      1.53001884	      0.13162960	      1.13373597	     -0.25286361	      0.00000000	      0.50000000	      0.00000000	      0.25000000	     75.10428897	     -6.31768770	     -4.70095674	    101.18458731	      1.76600420	      5.59174210	     -8.41946250	      0.00000000	      0.00000000	     69.24655489	     -6.14115336	      1.63041301	     58.55851783	      1.02203894	      2.19189456	     -3.72074606	      0.00000000	      0.00000000	    -49.43025172	      1.41975336	      3.77067610	     89.80357263	      1.22658738	     22.31721983	     30.07088628	     24.92960350	      0.00000000	      0.00000000	     89.75227627	      5.19177022	     25.28355735	     29.55575962	     24.92217395	      0.00000000	      0.00000000
      0.02500000	    -20.13626260	     -3.01730590	      1.53779639	      0.13173756	      1.13431411	     -0.25290810	      0.00000000	      0.50000000	      0.00000000	      0.25000000	     74.85699806	     -6.32750600	     -4.71210505	    101.15643473	      1.76551285	      5.63196603	     -8.52427673	      0.00000000	      0.00000000	     68.98253165	     -6.14725842	      1.58686812	     58.50265290	      1.02106391	      2.20204667	     -3.76177693	      0.00000000	      0.00000000	    -49.75930913	      1.37777651	      3.75130229	     89.80195472	      1.11950842	     22.09808821	     30.48976455	     25.41238897	      0.00000000	      0.00000000	     89.75125806	      5.14768561	     25.04885472	     29.96737708	     25.41015533	      0.00000000	      0.00000000
      0.03000000	    -20.29181605	     -3.08280792	      1.54267933	      0.13166908	      1.13380150	     -0.25293341	      0.00000000	      0.50000000	      0.00000000	      0.25000000	     75.05944634	     -6.32151449	     -4.76323169	    101.19829342	      1.76624342	      5.58699367	     -8.44380185	      0.00000000	      0.00000000	     69.20202864	     -6.16473305	      1.66335615	     58.56748484	      1.02219545	      2.20765575	     -3.64904505	      0.00000000	      0.00000000	    -49.46748365	      1.42706083	      3.79707851	     89.80459321	      0.63913557	     24.57041470	     31.02303960	     19.78317860	      0.00000000	      0.00000000	     89.75322512	      4.90012411	     26.85084248	     30.54202722	     19.73612302	      0.00000000	      0.00000000
      0.03500000	    -20.29481178	     -3.07684321	      1.50836933	      0.13172472	      1.13378705	     -0.25287619	      0.00000000	      0.50000000	      0.00000000	      0.25000000	     75.08088905	     -6.28427092	     -4.74159325	    101.21500827	      1.76653515	      5.59144043	     -8.44520677	      0.00000000	      0.00000000	     69.19037891	     -6.20125987	      1.63629865	     58.56357170	      1.02212715	      2.20890817	     -3.64995378	      0.00000000	      0.00000000	    -49.45456321	      1.40660649	      3.79985906	     89.80455277	      0.62684957	     24.66557784	     30.40845267	     22.73048597	      0.00000000	      0.00000000	     89.75533886	      4.70618910	     27.38182965	     29.93353050	     22.79339441	      0.00000000	      0.00000000
      0.04000000	    -20.29816275	     -3.08265515	      1.51730335	      0.13171796	      1.13375509	     -0.25294363	      0.00000000	      0.50000000	      0.00000000	      0.25000000	     75.10162755	     -6.30230508	     -4.75028785	    101.23486751	      1.76688176	      5.57161446	     -8.46142177	      0.00000000	      0.00000000	     69.18537192	     -6.18759057	      1.64707470	     58.55336695	      1.02194904	      2.20352305	     -3.67996134	      0.00000000	      0.00000000	    -49.45838139	      1.41312079	      3.80438738	     89.80404470	      0.67428380	     24.50515281	     31.01153884	     19.59350293	      0.00000000	      0.00000000	     89.75337556	      4.82666004	     27.04779515	     30.59394278	     19.51951510	      0.00000000	      0.00000000
      0.04500000	    -20.30010636	     -3.06162982	      1.48303728	      0.13174107	      1.13376258	     -0.25288790	      0.00000000	      0.50000000	      0.00000000	      0.25000000	     75.12954601	     -6.27222854	     -4.70909886	    101.25168880	      1.76717534	      5.56147023	     -8.45682963	      0.00000000	      0.00000000	     69.16305152	     -6.21070195	      1.60825537	     58.53324968	      1.02159793	      2.18435233	     -3.70549829	      0.00000000	      0.00000000	    -49.47772063	      1.37804032	      3.81697041	     89.80333396	      0.94549888	     23.24242468	     30.62516045	     22.13598508	      0.00000000	      0.00000000	     89.75214264	      5.04670228	     26.01847607	     30.13675628	     22.08374644	      0.00000000	      0.00000000
      0.05000000	    -20.30217436	     -3.10609322	      1.49930633	      0.13173641	      1.13371100	     -0.25294623	      0.00000000	      0.50000000	      0.00000000	      0.25000000	     75.13603842	     -6.27771465	     -4.76065621	    101.26626338	      1.76742972	      5.54958835	     -8.46781499	      0.00000000	      0.00000000	     69.16991394	     -6.21464222	      1.65842717	     58.52866924	      1.02151798	      2.19390032	     -3.66783453	      0.00000000	      0.00000000	    -49.45609736	      1.40695379	      3.83826710	     89.80383308	      0.64728881	     24.48072312	     31.04279416	     19.64435473	      0.00000000	      0.00000000	     89.75333394	      4.88861783	     26.91744212	     30.58832335	     19.48979341	      0.00000000	      0.00000000
      0.05500000	    -20.31964335	     -3.14054965	      1.52984500	      0.13171375	      1.13364058	     -0.25306273	      0.00000000	      0.50000000	      0.00000000	      0.25000000	     75.16662067	     -6.30704663	     -4.80426711	    101.28826004	      1.76781363	      5.56621308	     -8.46512438	      0.00000000	      0.00000000	     69.18542861	     -6.18450028	      1.72408293	     58.50718738	      1.02114306	      2.18314390	     -3.67486753	      0.00000000	      0.00000000	    -49.43176227	      1.46207937	      3.84290753	     89.80389514	      0.68273013	     24.15632612	     30.46971635	     22.56363651	      0.00000000	      0.00000000	     89.75388869	      4.80614079	     27.00885334	     30.01917504	     22.53496424	      0.00000000	      0.00000000
      0.06000000	    -20.30477589	     -3.08412472	      1.49751708	      0.13172505	      1.13365131	     -0.25302974	      0.00000000	      0.50000000	      0.00000000	      0.25000000	     75.19374278	     -6.30825057	     -4.73682242	    101.32233386	      1.76840833	      5.52394172	     -8.49800763	      0.00000000	      0.00000000	     69.14224558	     -6.19529397	      1.63586461	     58.48834124	      1.02081413	      2.08993396	     -3.77132038	      0.00000000	      0.00000000	    -49.43892109	      1.39484329	      3.80321205	     89.80382471	      0.68571295	     24.53199044	     30.96486206	     19.38579294	      0.00000000	      0.00000000	     89.75341071	      4.81682290	     27.10064103	     30.65645355	     19.32957718	      0.00000000	      0.00000000
      0.06500000	    -20.31704782	     -3.11356251	      1.46428996	      0.13173525	      1.13362708	     -0.25296658	      0.00000000	      0.50000000	      0.00000000	      0.25000000	     75.21288457	     -6.24914960	     -4.74600248	    101.32370961	      1.76843234	      5.52339573	     -8.47305957	      0.00000000	      0.00000000	     69.14453911	     -6.24588815	      1.65387817	     58.48066748	      1.02068020	      2.17819971	     -3.66342651	      0.00000000	      0.00000000	    -49.43601697	      1.38937451	      3.83755201	     89.80424535	      0.67590677	     24.36449787	     30.44127637	     22.60045091	      0.00000000	      0.00000000	     89.75364947	      4.78368559	     27.12846208	     30.01060581	     22.60196941	      0.00000000	      0.00000000
